<?xml version="1.0" encoding="utf-8"?>
<!-- Generator: Adobe Illustrator 23.0.3, SVG Export Plug-In . SVG Version: 6.00 Build 0)  -->
<svg version="1.1" id="Capa_1" xmlns="http://www.w3.org/2000/svg" xmlns:xlink="http://www.w3.org/1999/xlink" x="0px" y="0px"
	 viewBox="0 0 960.1 885.6" style="enable-background:new 0 0 960.1 885.6;" xml:space="preserve">
<style type="text/css">
	.st0{opacity:0.6;}
	.st1{fill:#C3CCD8;}
	.st2{fill:#A2A7AA;}
	.st3{fill:#B5BCC4;}
	.st4{fill:#FFFFFF;}
	.st5{fill:#C0C5C9;}
	.st6{fill:#8A9093;}
	.st7{fill:#4285F4;}
	.st8{fill:url(#SVGID_3_);}
	.st9{fill:#606060;}
	.st10{fill:none;stroke:#606060;stroke-width:2;stroke-miterlimit:10;}
	.st11{opacity:5.000000e-02;fill:#606060;}
	.st12{fill:none;stroke:#FFFFFF;stroke-width:2;stroke-miterlimit:10;}
	.st13{fill:#242424;}
	.st14{fill:#636363;}
	.st15{fill:#838383;}
	.st16{fill:#505050;}
	.st17{fill:none;stroke:url(#SVGID_4_);stroke-miterlimit:10;}
	.st18{fill:none;stroke:url(#SVGID_5_);stroke-miterlimit:10;}
	.st19{fill:none;stroke:url(#SVGID_6_);stroke-miterlimit:10;}
	.st20{fill:none;stroke:url(#SVGID_7_);stroke-miterlimit:10;}
	.st21{fill:none;stroke:url(#SVGID_8_);stroke-miterlimit:10;}
	.st22{fill:none;stroke:url(#SVGID_9_);stroke-miterlimit:10;}
	.st23{fill:none;stroke:url(#SVGID_10_);stroke-miterlimit:10;}
	.st24{fill:none;stroke:url(#SVGID_11_);stroke-miterlimit:10;}
	.st25{fill:none;stroke:url(#SVGID_12_);stroke-miterlimit:10;}
	.st26{fill:none;stroke:url(#SVGID_13_);stroke-miterlimit:10;}
	.st27{fill:none;stroke:url(#SVGID_14_);stroke-miterlimit:10;}
	.st28{fill:none;stroke:url(#SVGID_15_);stroke-miterlimit:10;}
	.st29{fill:none;stroke:url(#SVGID_16_);stroke-miterlimit:10;}
	.st30{fill:none;stroke:url(#SVGID_17_);stroke-miterlimit:10;}
	.st31{fill:none;stroke:url(#SVGID_18_);stroke-miterlimit:10;}
	.st32{fill:none;stroke:url(#SVGID_19_);stroke-miterlimit:10;}
	.st33{fill:none;stroke:url(#SVGID_20_);stroke-miterlimit:10;}
	.st34{fill:none;stroke:url(#SVGID_21_);stroke-miterlimit:10;}
	.st35{fill:none;stroke:url(#SVGID_22_);stroke-miterlimit:10;}
	.st36{fill-rule:evenodd;clip-rule:evenodd;fill:#DF241A;}
	.st37{fill-rule:evenodd;clip-rule:evenodd;fill:#0074B2;}
	.st38{fill-rule:evenodd;clip-rule:evenodd;fill:#FFD919;}
	.st39{fill:#1B1A19;}
	.st40{fill-rule:evenodd;clip-rule:evenodd;fill:#1B1A19;}
	.st41{fill-rule:evenodd;clip-rule:evenodd;fill:#EF8B13;}
	.st42{fill:#ED1C27;}
	.st43{fill:#FFFFFF;stroke:#3D3D3D;stroke-width:0.25;stroke-miterlimit:10;}
	.st44{fill:none;stroke:#518FF5;stroke-miterlimit:10;}
	.st45{fill:#0EA75A;}
	.st46{fill:none;stroke:#1197D5;stroke-miterlimit:10;}
	.st47{clip-path:url(#SVGID_24_);fill:url(#SVGID_25_);stroke:url(#SVGID_26_);stroke-miterlimit:10;}
	.st48{clip-path:url(#SVGID_24_);fill:url(#SVGID_27_);}
	.st49{clip-path:url(#SVGID_24_);}
	.st50{opacity:0.6;clip-path:url(#SVGID_24_);}
	.st51{fill:#F2F3F4;}
	.st52{clip-path:url(#SVGID_24_);fill:#FFFFFF;}
	.st53{clip-path:url(#SVGID_24_);fill:#ED1C27;}
	.st54{clip-path:url(#SVGID_24_);fill:none;}
	.st55{fill:none;stroke:#606060;stroke-width:0.75;stroke-miterlimit:10;}
	.st56{fill:#1197D5;}
	.st57{fill:#8A9093;stroke:#FFFFFF;stroke-width:2;stroke-miterlimit:10;}
	.st58{fill:#7D8188;}
	.st59{fill:#FEFEFE;}
	.st60{fill:#E8E8E8;}
	.st61{fill:none;stroke:#A2A7AA;stroke-width:0.5;stroke-miterlimit:10;}
	.st62{fill:#6B6B6B;}
	.st63{fill:#9D9E9E;}
	.st64{opacity:0.8;fill:#C0C5C9;}
	.st65{fill:none;stroke:url(#SVGID_28_);stroke-miterlimit:10;}
	.st66{fill:none;stroke:url(#SVGID_29_);stroke-miterlimit:10;}
	.st67{fill:none;stroke:url(#SVGID_30_);stroke-miterlimit:10;}
	.st68{fill:none;stroke:url(#SVGID_31_);stroke-miterlimit:10;}
	.st69{fill:none;stroke:url(#SVGID_32_);stroke-miterlimit:10;}
	.st70{fill:none;stroke:url(#SVGID_33_);stroke-miterlimit:10;}
	.st71{fill:none;stroke:url(#SVGID_34_);stroke-miterlimit:10;}
	.st72{fill:none;stroke:url(#SVGID_35_);stroke-miterlimit:10;}
	.st73{fill:none;stroke:url(#SVGID_36_);stroke-miterlimit:10;}
	.st74{fill:none;stroke:url(#SVGID_37_);stroke-miterlimit:10;}
	.st75{fill:none;stroke:url(#SVGID_38_);stroke-miterlimit:10;}
	.st76{fill:none;stroke:url(#SVGID_39_);stroke-miterlimit:10;}
	.st77{fill:none;stroke:url(#SVGID_40_);stroke-miterlimit:10;}
	.st78{fill:none;stroke:url(#SVGID_41_);stroke-miterlimit:10;}
	.st79{fill:none;stroke:url(#SVGID_42_);stroke-miterlimit:10;}
	.st80{fill:none;stroke:url(#SVGID_43_);stroke-miterlimit:10;}
	.st81{fill:none;stroke:url(#SVGID_44_);stroke-miterlimit:10;}
	.st82{fill:none;stroke:url(#SVGID_45_);stroke-miterlimit:10;}
	.st83{fill:none;stroke:url(#SVGID_46_);stroke-miterlimit:10;}
	.st84{fill:none;stroke:url(#SVGID_47_);stroke-miterlimit:10;}
	.st85{fill:none;stroke:url(#SVGID_48_);stroke-miterlimit:10;}
	.st86{fill:none;stroke:url(#SVGID_49_);stroke-miterlimit:10;}
	.st87{fill:none;stroke:url(#SVGID_50_);stroke-miterlimit:10;}
	.st88{fill:none;stroke:url(#SVGID_51_);stroke-miterlimit:10;}
	.st89{fill:none;stroke:url(#SVGID_52_);stroke-miterlimit:10;}
	.st90{fill:none;stroke:url(#SVGID_53_);stroke-miterlimit:10;}
	.st91{fill:none;stroke:url(#SVGID_54_);stroke-miterlimit:10;}
	.st92{fill:none;stroke:url(#SVGID_55_);stroke-miterlimit:10;}
	.st93{fill:none;stroke:url(#SVGID_56_);stroke-miterlimit:10;}
	.st94{fill:none;stroke:url(#SVGID_57_);stroke-miterlimit:10;}
	.st95{fill:none;stroke:url(#SVGID_58_);stroke-miterlimit:10;}
	.st96{fill:none;stroke:url(#SVGID_59_);stroke-miterlimit:10;}
	.st97{fill:none;stroke:url(#SVGID_60_);stroke-miterlimit:10;}
	.st98{fill:none;stroke:url(#SVGID_61_);stroke-miterlimit:10;}
	.st99{fill:none;stroke:url(#SVGID_62_);stroke-miterlimit:10;}
	.st100{fill:none;stroke:url(#SVGID_63_);stroke-miterlimit:10;}
	.st101{fill:none;stroke:url(#SVGID_64_);stroke-miterlimit:10;}
	.st102{fill:none;stroke:url(#SVGID_65_);stroke-miterlimit:10;}
	.st103{fill:none;stroke:url(#SVGID_66_);stroke-miterlimit:10;}
	.st104{fill:none;stroke:url(#SVGID_67_);stroke-miterlimit:10;}
	.st105{fill:none;stroke:url(#SVGID_68_);stroke-miterlimit:10;}
	.st106{fill:none;stroke:url(#SVGID_69_);stroke-miterlimit:10;}
	.st107{fill:none;stroke:url(#SVGID_70_);stroke-miterlimit:10;}
	.st108{fill:none;stroke:url(#SVGID_71_);stroke-miterlimit:10;}
	.st109{fill:none;stroke:url(#SVGID_72_);stroke-miterlimit:10;}
	.st110{fill:none;stroke:url(#SVGID_73_);stroke-miterlimit:10;}
	.st111{fill:none;stroke:url(#SVGID_74_);stroke-miterlimit:10;}
	.st112{fill:none;stroke:url(#SVGID_75_);stroke-miterlimit:10;}
	.st113{fill:none;stroke:url(#SVGID_76_);stroke-miterlimit:10;}
	.st114{fill:none;stroke:url(#SVGID_77_);stroke-miterlimit:10;}
	.st115{fill:none;stroke:url(#SVGID_78_);stroke-miterlimit:10;}
	.st116{fill:none;stroke:url(#SVGID_79_);stroke-miterlimit:10;}
	.st117{fill:none;stroke:url(#SVGID_80_);stroke-miterlimit:10;}
	.st118{fill:none;stroke:url(#SVGID_81_);stroke-miterlimit:10;}
	.st119{fill:none;stroke:url(#SVGID_82_);stroke-miterlimit:10;}
	.st120{fill:none;stroke:url(#SVGID_83_);stroke-miterlimit:10;}
	.st121{fill:none;stroke:url(#SVGID_84_);stroke-miterlimit:10;}
	.st122{fill:#FCFCFC;}
	.st123{fill:none;stroke:#FFFFFF;stroke-miterlimit:10;}
	.st124{fill:url(#SVGID_85_);}
	.st125{fill:#16B55E;}
	.st126{fill:none;stroke:url(#SVGID_86_);stroke-miterlimit:10;}
	.st127{fill:none;stroke:url(#SVGID_87_);stroke-miterlimit:10;}
	.st128{fill:none;stroke:url(#SVGID_88_);stroke-miterlimit:10;}
	.st129{fill:none;stroke:url(#SVGID_89_);stroke-miterlimit:10;}
	.st130{fill:none;stroke:url(#SVGID_90_);stroke-miterlimit:10;}
	.st131{fill:none;stroke:url(#SVGID_91_);stroke-miterlimit:10;}
	.st132{fill:none;stroke:url(#SVGID_92_);stroke-miterlimit:10;}
	.st133{fill:none;stroke:url(#SVGID_93_);stroke-miterlimit:10;}
	.st134{fill:none;stroke:url(#SVGID_94_);stroke-miterlimit:10;}
	.st135{fill:none;stroke:url(#SVGID_95_);stroke-miterlimit:10;}
	.st136{fill:none;stroke:url(#SVGID_96_);stroke-miterlimit:10;}
	.st137{fill:none;stroke:url(#SVGID_97_);stroke-miterlimit:10;}
	.st138{fill:none;stroke:url(#SVGID_98_);stroke-miterlimit:10;}
	.st139{fill:none;stroke:url(#SVGID_99_);stroke-miterlimit:10;}
	.st140{fill:none;stroke:url(#SVGID_100_);stroke-miterlimit:10;}
	.st141{fill:none;stroke:url(#SVGID_101_);stroke-miterlimit:10;}
	.st142{fill:none;stroke:url(#SVGID_102_);stroke-miterlimit:10;}
	.st143{fill:none;stroke:url(#SVGID_103_);stroke-miterlimit:10;}
	.st144{fill:none;stroke:url(#SVGID_104_);stroke-miterlimit:10;}
	.st145{fill:#CCCCCC;}
	.st146{fill:none;stroke:url(#SVGID_105_);stroke-miterlimit:10;}
	.st147{fill:none;stroke:url(#SVGID_106_);stroke-miterlimit:10;}
	.st148{fill:none;stroke:url(#SVGID_107_);stroke-miterlimit:10;}
	.st149{fill:none;stroke:url(#SVGID_108_);stroke-miterlimit:10;}
	.st150{fill:none;stroke:url(#SVGID_109_);stroke-miterlimit:10;}
	.st151{fill:none;stroke:url(#SVGID_110_);stroke-miterlimit:10;}
	.st152{fill:none;stroke:url(#SVGID_111_);stroke-miterlimit:10;}
	.st153{fill:none;stroke:url(#SVGID_112_);stroke-miterlimit:10;}
	.st154{fill:none;stroke:url(#SVGID_113_);stroke-miterlimit:10;}
	.st155{fill:none;stroke:url(#SVGID_114_);stroke-miterlimit:10;}
	.st156{fill:none;stroke:url(#SVGID_115_);stroke-miterlimit:10;}
	.st157{fill:none;stroke:url(#SVGID_116_);stroke-miterlimit:10;}
	.st158{fill:none;stroke:url(#SVGID_117_);stroke-miterlimit:10;}
	.st159{fill:none;stroke:url(#SVGID_118_);stroke-miterlimit:10;}
	.st160{fill:none;stroke:url(#SVGID_119_);stroke-miterlimit:10;}
	.st161{fill:none;stroke:url(#SVGID_120_);stroke-miterlimit:10;}
	.st162{fill:none;stroke:url(#SVGID_121_);stroke-miterlimit:10;}
	.st163{fill:none;stroke:url(#SVGID_122_);stroke-miterlimit:10;}
	.st164{fill:none;stroke:url(#SVGID_123_);stroke-miterlimit:10;}
	.st165{fill:url(#SVGID_124_);}
	.st166{fill:url(#SVGID_125_);}
	.st167{fill:url(#SVGID_126_);}
	.st168{fill:url(#SVGID_127_);}
	.st169{fill:url(#SVGID_128_);}
	.st170{fill:url(#SVGID_129_);}
	.st171{fill:url(#SVGID_130_);}
	.st172{fill:url(#SVGID_131_);}
	.st173{fill:url(#SVGID_132_);}
	.st174{fill:url(#SVGID_133_);}
	.st175{fill:url(#SVGID_134_);}
	.st176{fill:url(#SVGID_135_);}
	.st177{fill:url(#SVGID_136_);}
	.st178{fill:url(#SVGID_137_);}
	.st179{fill:url(#SVGID_138_);}
	.st180{fill:url(#SVGID_139_);}
	.st181{fill:url(#SVGID_140_);}
	.st182{fill:url(#SVGID_141_);}
	.st183{fill:url(#SVGID_142_);}
	.st184{fill:none;stroke:#606060;stroke-width:24;stroke-miterlimit:10;}
	.st185{clip-path:url(#SVGID_144_);}
	.st186{fill:url(#SVGID_145_);stroke:url(#SVGID_146_);stroke-miterlimit:10;}
	.st187{fill:url(#SVGID_147_);}
	.st188{fill:none;}
</style>
<g>
	
		<linearGradient id="SVGID_2_" gradientUnits="userSpaceOnUse" x1="8118.8545" y1="2985.8054" x2="8292.2393" y2="2985.8054" gradientTransform="matrix(-0.4393 0.8984 -0.8984 -0.4393 6437.7988 -5319.9907)">
		<stop  offset="4.102398e-07" style="stop-color:#EA0707"/>
		<stop  offset="3.183402e-02" style="stop-color:#EB0E12"/>
		<stop  offset="8.861980e-02" style="stop-color:#EC161E"/>
		<stop  offset="0.1666" style="stop-color:#ED1B25"/>
		<stop  offset="0.3626" style="stop-color:#ED1C27"/>
		<stop  offset="0.3891" style="stop-color:#ED1C27"/>
		<stop  offset="1" style="stop-color:#ED1C27"/>
	</linearGradient>
	<path style="fill:none;stroke:url(#SVGID_2_);stroke-miterlimit:10;" d="M175.1,691.5c-28.5-13.9-118.5,48.8-147.7,72.9
		c-17.5,14.4-37.7-11.8-20.2-26.2c31.4-25.9,137.5-98.3,181.8-75.6c45,21,53.1,149.2,51.9,189.8c-0.6,22.7-33.7,22.8-33.1,0.2
		C208.9,814.8,203.6,705.4,175.1,691.5z"/>
	
		<linearGradient id="SVGID_3_" gradientUnits="userSpaceOnUse" x1="3256.8054" y1="4185.8213" x2="3347.2605" y2="4185.8213" gradientTransform="matrix(0.6654 0.7465 -0.7465 0.6654 1307.0624 -4508.4175)">
		<stop  offset="4.102398e-07" style="stop-color:#EA0707"/>
		<stop  offset="3.183402e-02" style="stop-color:#EB0E12"/>
		<stop  offset="8.861980e-02" style="stop-color:#EC161E"/>
		<stop  offset="0.1666" style="stop-color:#ED1B25"/>
		<stop  offset="0.3626" style="stop-color:#ED1C27"/>
		<stop  offset="0.3891" style="stop-color:#ED1C27"/>
		<stop  offset="1" style="stop-color:#ED1C27"/>
	</linearGradient>
	<path style="fill:none;stroke:url(#SVGID_3_);stroke-miterlimit:10;" d="M360.9,720.7c-12.3,10.9,0.2,66.5,6,85.2
		c3.5,11.2-13.1,15.8-16.6,4.6c-6.3-20.2-20.2-85.4-0.6-102.2c18.9-17.5,82.1,3.8,101.4,12.3c10.8,4.8,4.3,20.7-6.4,15.9
		C426.8,728.7,373.2,709.8,360.9,720.7z"/>
	
		<linearGradient id="SVGID_4_" gradientUnits="userSpaceOnUse" x1="8009.5962" y1="2587.9099" x2="8114.1455" y2="2587.9099" gradientTransform="matrix(-0.442 0.897 -0.897 -0.442 6501.2959 -5280.5869)">
		<stop  offset="4.102398e-07" style="stop-color:#EA0707"/>
		<stop  offset="3.183402e-02" style="stop-color:#EB0E12"/>
		<stop  offset="8.861980e-02" style="stop-color:#EC161E"/>
		<stop  offset="0.1666" style="stop-color:#ED1B25"/>
		<stop  offset="0.3626" style="stop-color:#ED1C27"/>
		<stop  offset="0.3891" style="stop-color:#ED1C27"/>
		<stop  offset="1" style="stop-color:#ED1C27"/>
	</linearGradient>
	<path class="st17" d="M631,778c-17.1-8.4-71.3,29.1-88.8,43.5c-10.6,8.6-22.6-7.2-12.1-15.8c18.9-15.5,82.8-58.8,109.3-45.1
		c27,12.7,31.6,89.7,30.8,114.1c-0.4,13.6-20.3,13.6-19.9,0C651.1,852.2,648.1,786.4,631,778z"/>
	
		<linearGradient id="SVGID_5_" gradientUnits="userSpaceOnUse" x1="152.0062" y1="27.0305" x2="231.4409" y2="27.0305" gradientTransform="matrix(0.9249 -0.3803 0.3803 0.9249 371.3033 670.5195)">
		<stop  offset="4.102398e-07" style="stop-color:#EA0707"/>
		<stop  offset="3.183402e-02" style="stop-color:#EB0E12"/>
		<stop  offset="8.861980e-02" style="stop-color:#EC161E"/>
		<stop  offset="0.1666" style="stop-color:#ED1B25"/>
		<stop  offset="0.3626" style="stop-color:#ED1C27"/>
		<stop  offset="0.3891" style="stop-color:#ED1C27"/>
		<stop  offset="1" style="stop-color:#ED1C27"/>
	</linearGradient>
	<path class="st18" d="M536.1,631.9c5.5,13.3,55.1,19.2,72.3,19.8c10.3,0.4,9.3,15.4-1,15c-18.5-0.7-76.5-8.1-84.7-29.2
		c-9-20.7,27-66.8,39.7-80.3c7.1-7.5,18.4,2.4,11.3,9.9C561.8,579.7,530.6,618.5,536.1,631.9z"/>
	
		<linearGradient id="SVGID_6_" gradientUnits="userSpaceOnUse" x1="1557.8885" y1="-3389.0212" x2="1634.7213" y2="-3389.0212" gradientTransform="matrix(0.3025 -0.9531 0.9531 0.3025 3062.3562 3130.2776)">
		<stop  offset="4.102398e-07" style="stop-color:#EA0707"/>
		<stop  offset="3.183402e-02" style="stop-color:#EB0E12"/>
		<stop  offset="8.861980e-02" style="stop-color:#EC161E"/>
		<stop  offset="0.1666" style="stop-color:#ED1B25"/>
		<stop  offset="0.3626" style="stop-color:#ED1C27"/>
		<stop  offset="0.3891" style="stop-color:#ED1C27"/>
		<stop  offset="1" style="stop-color:#ED1C27"/>
	</linearGradient>
	<path class="st19" d="M307.7,606.2c13.3,4.2,48.4-28.9,59.5-41.3c6.7-7.4,17.2,2.7,10.5,10.1c-12,13.3-53.5,51.6-74.2,44.6
		c-21-6.2-32.7-61.5-34.9-79.2c-1.2-9.9,13.2-12.1,14.4-2.2C285,554.8,294.4,602,307.7,606.2z"/>
	
		<linearGradient id="SVGID_7_" gradientUnits="userSpaceOnUse" x1="8213.5723" y1="1838.3425" x2="8290.4053" y2="1838.3425" gradientTransform="matrix(-0.6038 0.7972 -0.7972 -0.6038 7222.228 -4837.4121)">
		<stop  offset="4.102398e-07" style="stop-color:#EA0707"/>
		<stop  offset="3.183402e-02" style="stop-color:#EB0E12"/>
		<stop  offset="8.861980e-02" style="stop-color:#EC161E"/>
		<stop  offset="0.1666" style="stop-color:#ED1B25"/>
		<stop  offset="0.3626" style="stop-color:#ED1C27"/>
		<stop  offset="0.3891" style="stop-color:#ED1C27"/>
		<stop  offset="1" style="stop-color:#ED1C27"/>
	</linearGradient>
	<path class="st20" d="M788.9,611.8c-11.1-8.4-55.3,11.1-69.9,19c-8.8,4.7-15.3-8.3-6.5-13c15.7-8.5,67.7-30.8,84.9-17.2
		c17.7,12.9,10.3,68.9,6.4,86.3c-2.2,9.7-16.5,7-14.3-2.7C793,667.9,800,620.2,788.9,611.8z"/>
	
		<linearGradient id="SVGID_8_" gradientUnits="userSpaceOnUse" x1="3337.8735" y1="4186.5137" x2="3394.3906" y2="4186.5137" gradientTransform="matrix(0.6052 0.7961 -0.7961 0.6052 1809.4172 -4746.7354)">
		<stop  offset="4.102398e-07" style="stop-color:#EA0707"/>
		<stop  offset="3.183402e-02" style="stop-color:#EB0E12"/>
		<stop  offset="8.861980e-02" style="stop-color:#EC161E"/>
		<stop  offset="0.1666" style="stop-color:#ED1B25"/>
		<stop  offset="0.3626" style="stop-color:#ED1C27"/>
		<stop  offset="0.3891" style="stop-color:#ED1C27"/>
		<stop  offset="1" style="stop-color:#ED1C27"/>
	</linearGradient>
	<path class="st21" d="M503.5,452.7c-8.1,6.2-3.1,41.2-0.4,53c1.6,7.1-8.8,9.1-10.5,2c-2.9-12.8-8.4-53.8,4.6-63.2
		c12.5-9.9,50.6,6.3,62.1,12.5c6.4,3.5,1.7,13-4.7,9.5C543.8,460.9,511.6,446.6,503.5,452.7z"/>
	
		<linearGradient id="SVGID_9_" gradientUnits="userSpaceOnUse" x1="7756.6899" y1="-2848.6089" x2="7813.207" y2="-2848.6089" gradientTransform="matrix(-0.9557 -0.2943 0.2943 -0.9557 8972.9482 22.7475)">
		<stop  offset="4.102398e-07" style="stop-color:#EA0707"/>
		<stop  offset="3.183402e-02" style="stop-color:#EB0E12"/>
		<stop  offset="8.861980e-02" style="stop-color:#EC161E"/>
		<stop  offset="0.1666" style="stop-color:#ED1B25"/>
		<stop  offset="0.3626" style="stop-color:#ED1C27"/>
		<stop  offset="0.3891" style="stop-color:#ED1C27"/>
		<stop  offset="1" style="stop-color:#ED1C27"/>
	</linearGradient>
	<path class="st22" d="M711.1,459.6c3-9.8-21.5-35.3-30.6-43.3c-5.5-4.9,1.9-12.6,7.3-7.7c9.8,8.7,38.1,38.8,33.1,54
		c-4.4,15.4-44.8,24.4-57.8,26c-7.2,0.9-8.9-9.6-1.7-10.5C673.5,476.5,708.1,469.3,711.1,459.6z"/>
	
		<linearGradient id="SVGID_10_" gradientUnits="userSpaceOnUse" x1="5424.9927" y1="-4283.4839" x2="5481.5103" y2="-4283.4839" gradientTransform="matrix(-0.5911 -0.8066 0.8066 -0.5911 7438.4941 2647.2375)">
		<stop  offset="4.102398e-07" style="stop-color:#EA0707"/>
		<stop  offset="3.183402e-02" style="stop-color:#EB0E12"/>
		<stop  offset="8.861980e-02" style="stop-color:#EC161E"/>
		<stop  offset="0.1666" style="stop-color:#ED1B25"/>
		<stop  offset="0.3626" style="stop-color:#ED1C27"/>
		<stop  offset="0.3891" style="stop-color:#ED1C27"/>
		<stop  offset="1" style="stop-color:#ED1C27"/>
	</linearGradient>
	<path class="st23" d="M770.3,794.6c8.2-6,3.8-41.1,1.3-53c-1.5-7.2,9-9,10.5-1.8c2.7,12.8,7.4,53.9-5.7,63.1
		c-12.7,9.7-50.5-7.2-61.9-13.6c-6.4-3.6-1.5-13,4.9-9.5C730.1,785.7,762.1,800.6,770.3,794.6z"/>
	
		<linearGradient id="SVGID_11_" gradientUnits="userSpaceOnUse" x1="5300.4409" y1="-4158.624" x2="5356.9585" y2="-4158.624" gradientTransform="matrix(-0.5911 -0.8066 0.8066 -0.5911 7438.4941 2647.2375)">
		<stop  offset="4.102398e-07" style="stop-color:#EA0707"/>
		<stop  offset="3.183402e-02" style="stop-color:#EB0E12"/>
		<stop  offset="8.861980e-02" style="stop-color:#EC161E"/>
		<stop  offset="0.1666" style="stop-color:#ED1B25"/>
		<stop  offset="0.3626" style="stop-color:#ED1C27"/>
		<stop  offset="0.3891" style="stop-color:#ED1C27"/>
		<stop  offset="1" style="stop-color:#ED1C27"/>
	</linearGradient>
	<path class="st24" d="M944.6,821.2c8.2-6,3.8-41.1,1.3-53c-1.5-7.2,9-9,10.5-1.8c2.7,12.8,7.4,53.9-5.7,63.1
		c-12.7,9.7-50.5-7.2-61.9-13.6c-6.4-3.6-1.5-13,4.9-9.5C904.4,812.4,936.4,827.3,944.6,821.2z"/>
	
		<linearGradient id="SVGID_12_" gradientUnits="userSpaceOnUse" x1="1175.7058" y1="2992.8718" x2="1232.223" y2="2992.8718" gradientTransform="matrix(0.9323 0.3617 -0.3617 0.9323 314.0205 -2935.4341)">
		<stop  offset="4.102398e-07" style="stop-color:#EA0707"/>
		<stop  offset="3.183402e-02" style="stop-color:#EB0E12"/>
		<stop  offset="8.861980e-02" style="stop-color:#EC161E"/>
		<stop  offset="0.1666" style="stop-color:#ED1B25"/>
		<stop  offset="0.3626" style="stop-color:#ED1C27"/>
		<stop  offset="0.3891" style="stop-color:#ED1C27"/>
		<stop  offset="1" style="stop-color:#ED1C27"/>
	</linearGradient>
	<path class="st25" d="M337.8,283.9c-3.7,9.5,18.9,36.7,27.4,45.4c5.1,5.2-2.8,12.4-7.9,7.2c-9.2-9.4-35.3-41.5-29.2-56.3
		c5.5-15,46.4-21.1,59.5-21.8c7.3-0.4,8.2,10.2,1,10.6C376.4,269.7,341.4,274.4,337.8,283.9z"/>
	
		<linearGradient id="SVGID_13_" gradientUnits="userSpaceOnUse" x1="917.3893" y1="3183.2844" x2="973.9066" y2="3183.2844" gradientTransform="matrix(0.9323 0.3617 -0.3617 0.9323 314.0205 -2935.4341)">
		<stop  offset="4.102398e-07" style="stop-color:#EA0707"/>
		<stop  offset="3.183402e-02" style="stop-color:#EB0E12"/>
		<stop  offset="8.861980e-02" style="stop-color:#EC161E"/>
		<stop  offset="0.1666" style="stop-color:#ED1B25"/>
		<stop  offset="0.3626" style="stop-color:#ED1C27"/>
		<stop  offset="0.3891" style="stop-color:#ED1C27"/>
		<stop  offset="1" style="stop-color:#ED1C27"/>
	</linearGradient>
	<path class="st26" d="M28.1,368c-3.7,9.5,18.9,36.7,27.4,45.4c5.1,5.2-2.8,12.4-7.9,7.2c-9.2-9.4-35.3-41.5-29.2-56.3
		c5.5-15,46.4-21.1,59.5-21.8c7.3-0.4,8.2,10.2,1,10.6C66.7,353.8,31.8,358.5,28.1,368z"/>
	
		<linearGradient id="SVGID_14_" gradientUnits="userSpaceOnUse" x1="8270.7578" y1="2674.9309" x2="8327.2754" y2="2674.9309" gradientTransform="matrix(-0.6038 0.7972 -0.7972 -0.6038 7222.228 -4837.4121)">
		<stop  offset="4.102398e-07" style="stop-color:#EA0707"/>
		<stop  offset="3.183402e-02" style="stop-color:#EB0E12"/>
		<stop  offset="8.861980e-02" style="stop-color:#EC161E"/>
		<stop  offset="0.1666" style="stop-color:#ED1B25"/>
		<stop  offset="0.3626" style="stop-color:#ED1C27"/>
		<stop  offset="0.3891" style="stop-color:#ED1C27"/>
		<stop  offset="1" style="stop-color:#ED1C27"/>
	</linearGradient>
	<path class="st27" d="M89.7,149.3c-8.1-6.2-40.5,8.1-51.2,13.9c-6.4,3.5-11.2-6.1-4.8-9.5c11.5-6.2,49.5-22.5,62.1-12.6
		c12.9,9.4,7.5,50.4,4.7,63.2c-1.6,7.1-12.1,5.1-10.5-2C92.8,190.3,97.9,155.4,89.7,149.3z"/>
	
		<linearGradient id="SVGID_15_" gradientUnits="userSpaceOnUse" x1="8143.8213" y1="2833.8115" x2="8205.3203" y2="2833.8115" gradientTransform="matrix(-0.5034 0.864 -0.864 -0.5034 6674.6636 -5138.8896)">
		<stop  offset="4.102398e-07" style="stop-color:#EA0707"/>
		<stop  offset="3.183402e-02" style="stop-color:#EB0E12"/>
		<stop  offset="8.861980e-02" style="stop-color:#EC161E"/>
		<stop  offset="0.1666" style="stop-color:#ED1B25"/>
		<stop  offset="0.3626" style="stop-color:#ED1C27"/>
		<stop  offset="0.3891" style="stop-color:#ED1C27"/>
		<stop  offset="1" style="stop-color:#ED1C27"/>
	</linearGradient>
	<path class="st28" d="M120.6,481.4c-9.6-5.6-42.7,14.1-53.5,21.7c-6.5,4.6-12.9-5.1-6.4-9.7c11.6-8.3,50.6-30.9,65.6-21.8
		c15.2,8.5,14.8,53.6,13.3,67.8c-0.8,7.9-12.4,7.1-11.6-0.8C129.2,525.4,130.2,487,120.6,481.4z"/>
	
		<linearGradient id="SVGID_16_" gradientUnits="userSpaceOnUse" x1="7560.0083" y1="-2521.4614" x2="7587.0869" y2="-2521.4614" gradientTransform="matrix(-0.9872 -0.1596 0.1596 -0.9872 8781.4844 -585.8947)">
		<stop  offset="4.102398e-07" style="stop-color:#EA0707"/>
		<stop  offset="3.183402e-02" style="stop-color:#EB0E12"/>
		<stop  offset="8.861980e-02" style="stop-color:#EC161E"/>
		<stop  offset="0.1666" style="stop-color:#ED1B25"/>
		<stop  offset="0.3626" style="stop-color:#ED1C27"/>
		<stop  offset="0.3891" style="stop-color:#ED1C27"/>
		<stop  offset="1" style="stop-color:#ED1C27"/>
	</linearGradient>
	<path class="st29" d="M910.7,696c0.8-4.7-12.3-15-17-18.2c-2.9-1.9,0.1-6,2.9-4.1c5.1,3.4,20.3,15.6,18.9,23
		c-1.1,7.4-19.3,14.2-25.2,15.9c-3.3,0.9-4.8-3.9-1.5-4.8C894.3,706.3,909.9,700.7,910.7,696z"/>
	
		<linearGradient id="SVGID_17_" gradientUnits="userSpaceOnUse" x1="8459.0225" y1="-1985.3372" x2="8486.1006" y2="-1985.3372" gradientTransform="matrix(-0.9872 -0.1596 0.1596 -0.9872 8781.4844 -585.8947)">
		<stop  offset="4.102398e-07" style="stop-color:#EA0707"/>
		<stop  offset="3.183402e-02" style="stop-color:#EB0E12"/>
		<stop  offset="8.861980e-02" style="stop-color:#EC161E"/>
		<stop  offset="0.1666" style="stop-color:#ED1B25"/>
		<stop  offset="0.3626" style="stop-color:#ED1C27"/>
		<stop  offset="0.3891" style="stop-color:#ED1C27"/>
		<stop  offset="1" style="stop-color:#ED1C27"/>
	</linearGradient>
	<path class="st30" d="M108.7,23.2c0.8-4.7-12.3-15-17-18.2c-2.9-1.9,0.1-6,2.9-4.1c5.1,3.4,20.3,15.6,18.9,23
		c-1.1,7.4-19.3,14.2-25.2,15.9c-3.3,0.9-4.8-3.9-1.5-4.8C92.4,33.6,108,28,108.7,23.2z"/>
	
		<linearGradient id="SVGID_18_" gradientUnits="userSpaceOnUse" x1="8324.958" y1="-2082.0886" x2="8352.0361" y2="-2082.0886" gradientTransform="matrix(-0.9872 -0.1596 0.1596 -0.9872 8781.4844 -585.8947)">
		<stop  offset="4.102398e-07" style="stop-color:#EA0707"/>
		<stop  offset="3.183402e-02" style="stop-color:#EB0E12"/>
		<stop  offset="8.861980e-02" style="stop-color:#EC161E"/>
		<stop  offset="0.1666" style="stop-color:#ED1B25"/>
		<stop  offset="0.3626" style="stop-color:#ED1C27"/>
		<stop  offset="0.3891" style="stop-color:#ED1C27"/>
		<stop  offset="1" style="stop-color:#ED1C27"/>
	</linearGradient>
	<path class="st31" d="M225.7,140.2c0.8-4.7-12.3-15-17-18.2c-2.9-1.9,0.1-6,2.9-4.1c5.1,3.4,20.3,15.6,18.9,23
		c-1.1,7.4-19.3,14.2-25.2,15.9c-3.3,0.9-4.8-3.9-1.5-4.8C209.3,150.5,224.9,144.9,225.7,140.2z"/>
	
		<linearGradient id="SVGID_19_" gradientUnits="userSpaceOnUse" x1="7959.7886" y1="-2220.4292" x2="7986.8672" y2="-2220.4292" gradientTransform="matrix(-0.9872 -0.1596 0.1596 -0.9872 8781.4844 -585.8947)">
		<stop  offset="4.102398e-07" style="stop-color:#EA0707"/>
		<stop  offset="3.183402e-02" style="stop-color:#EB0E12"/>
		<stop  offset="8.861980e-02" style="stop-color:#EC161E"/>
		<stop  offset="0.1666" style="stop-color:#ED1B25"/>
		<stop  offset="0.3626" style="stop-color:#ED1C27"/>
		<stop  offset="0.3891" style="stop-color:#ED1C27"/>
		<stop  offset="1" style="stop-color:#ED1C27"/>
	</linearGradient>
	<path class="st32" d="M564.1,335c0.8-4.7-12.3-15-17-18.2c-2.9-1.9,0.1-6,2.9-4.1c5.1,3.4,20.3,15.6,18.9,23
		c-1.1,7.4-19.3,14.2-25.2,15.9c-3.3,0.9-4.8-3.9-1.5-4.8C547.7,345.3,563.3,339.7,564.1,335z"/>
	
		<linearGradient id="SVGID_20_" gradientUnits="userSpaceOnUse" x1="1115.1986" y1="-2898.1492" x2="1208.4463" y2="-2898.1492" gradientTransform="matrix(0.4442 -0.8959 0.8959 0.4442 2304.8047 2724.842)">
		<stop  offset="4.102398e-07" style="stop-color:#EA0707"/>
		<stop  offset="3.183402e-02" style="stop-color:#EB0E12"/>
		<stop  offset="8.861980e-02" style="stop-color:#EC161E"/>
		<stop  offset="0.1666" style="stop-color:#ED1B25"/>
		<stop  offset="0.3626" style="stop-color:#ED1C27"/>
		<stop  offset="0.3891" style="stop-color:#ED1C27"/>
		<stop  offset="1" style="stop-color:#ED1C27"/>
	</linearGradient>
	<path class="st33" d="M211.4,422.4c15.2,7.5,63.6-25.8,79.2-38.6c9.4-7.7,20.1,6.4,10.7,14.1c-16.9,13.8-73.9,52.2-97.5,39.9
		c-24-11.3-28-80-27.2-101.7c0.4-12.1,18.1-12.1,17.7,0C193.7,356.3,196.3,414.9,211.4,422.4z"/>
</g>
</svg>
